<?xml version="1.0" encoding="utf-8"?>
<svg version="1.1" xmlns="http://www.w3.org/2000/svg" xmlns:xlink="http://www.w3.org/1999/xlink" 
	 viewBox="0 0 19.7 26.9" style="enable-background:new 0 0 19.7 26.9;" xml:space="preserve">
<path fill="#000000" d="M0,0v20.1l9.9,6.8l9.9-6.8V0H0z"/>
<path fill="#FFFFFF" d="M15.5,15.3c0.2,0,0.4,0,0.6-0.1l0,2.2c-0.5,0.2-1.2,0.3-1.9,0.3c-1.2,0-2.1-0.5-2.5-1.3
	c-1.1,0.9-2.5,1.4-4.2,1.4c-2.2,0-4-1.3-4-3.6c0-3,2.8-3.9,5.1-3.9c0.9,0,1.9,0.1,2.7,0.3l0-0.4c0-1.2-0.9-2-2.7-2
	c-1.6,0-3,0.4-4.1,0.8l0-2.9c0.9-0.3,2.7-0.8,4.5-0.7c3.5,0,5.6,1.5,5.6,5.4l0,3.8C14.7,15.2,15.1,15.3,15.5,15.3z M6.6,14
	c0,1,0.9,1.6,2,1.6c1,0,2-0.3,2.9-1l0-2c-0.6-0.1-1.4-0.3-2.2-0.3C7.9,12.3,6.6,12.7,6.6,14z"/>
</svg>
